<svg width="176" height="84" viewBox="0 0 176 84" fill="none" xmlns="http://www.w3.org/2000/svg">
<g opacity="0.9">
<path d="M0 56C0 40.536 12.536 28 28 28H148C163.464 28 176 40.536 176 56V56C176 71.464 163.464 84 148 84H28C12.536 84 0 71.464 0 56V56Z" fill="white" fill-opacity="0.95"/>
<path d="M24 36C24 20.536 36.536 8 52 8V8C67.464 8 80 20.536 80 36V36C80 51.464 67.464 64 52 64V64C36.536 64 24 51.464 24 36V36Z" fill="white" fill-opacity="0.95"/>
<path d="M72 36C72 16.1177 88.1177 0 108 0V0C127.882 0 144 16.1177 144 36V36C144 55.8823 127.882 72 108 72V72C88.1177 72 72 55.8823 72 36V36Z" fill="white" fill-opacity="0.95"/>
</g>
</svg>
