<svg width="160" height="76" viewBox="0 0 160 76" fill="none" xmlns="http://www.w3.org/2000/svg">
<path d="M0 52C0 38.7452 10.7452 28 24 28H136C149.255 28 160 38.7452 160 52V52C160 65.2548 149.255 76 136 76H24C10.7452 76 0 65.2548 0 52V52Z" fill="white" fill-opacity="0.95"/>
<path d="M20 36C20 18.3269 34.3269 4 52 4V4C69.6731 4 84 18.3269 84 36V36C84 53.6731 69.6731 68 52 68V68C34.3269 68 20 53.6731 20 36V36Z" fill="white" fill-opacity="0.95"/>
<path d="M64 36C64 16.1177 80.1177 0 100 0V0C119.882 0 136 16.1177 136 36V36C136 55.8823 119.882 72 100 72V72C80.1177 72 64 55.8823 64 36V36Z" fill="white" fill-opacity="0.95"/>
</svg>
