<svg width="144" height="68" viewBox="0 0 144 68" fill="none" xmlns="http://www.w3.org/2000/svg">
<g opacity="0.85">
<path d="M0 46C0 33.8497 9.84974 24 22 24H122C134.15 24 144 33.8497 144 46V46C144 58.1503 134.15 68 122 68H22C9.84974 68 0 58.1503 0 46V46Z" fill="white" fill-opacity="0.95"/>
<path d="M20 32C20 16.536 32.536 4 48 4V4C63.464 4 76 16.536 76 32V32C76 47.464 63.464 60 48 60V60C32.536 60 20 47.464 20 32V32Z" fill="white" fill-opacity="0.95"/>
<path d="M64 32C64 14.3269 78.3269 0 96 0V0C113.673 0 128 14.3269 128 32V32C128 49.6731 113.673 64 96 64V64C78.3269 64 64 49.6731 64 32V32Z" fill="white" fill-opacity="0.95"/>
</g>
</svg>
