<svg width="17" height="16" viewBox="0 0 17 16" fill="none" xmlns="http://www.w3.org/2000/svg">
<path d="M15.0943 9.59981C14.3327 9.84621 13.5372 9.97161 12.7367 9.97091C8.53241 9.97091 5.12341 6.56193 5.12341 2.35763C5.12281 1.55712 5.24811 0.76167 5.49461 0C3.90884 0.54044 2.52947 1.5588 1.54523 2.91629C0.560975 4.27378 0.0212655 5.90347 0.000615491 7.57991C-0.0200345 9.25631 0.479385 10.8989 1.42991 12.2802C2.38043 13.6615 3.73431 14.7136 5.30611 15.2929C6.87801 15.8722 8.5897 15.9501 10.2075 15.5163C11.8253 15.0826 13.2695 14.1585 14.3471 12.8699C15.4248 11.5812 16.0824 9.98881 16.2307 8.30681C16.379 6.62491 16.0108 4.94176 15.1761 3.47656C15.5168 4.79657 15.4894 6.18466 15.0943 9.59981Z" fill="#E0E7FF"/>
</svg>
